<svg xmlns="http://www.w3.org/2000/svg" width="281" height="224" fill="none"><path fill="#FFDA3D" d="M251.231 117.702c2.014 1.531 4.447 3.031 6.451 4.975 4.252 4.121 8.395 8.373 12.316 12.804.891 1.006 1.469 3.409.888 4.418-3.98 6.918-8.02 13.836-12.598 20.363-6.228 8.877-14.767 15.479-23.312 21.99-15.071 11.489-31.708 20.144-49.299 27.034-17.766 6.961-36.079 11.583-55.115 13.626-20.576 2.212-40.928 1.094-60.933-3.749-19.889-4.815-38.049-13.377-52.747-28.156-1.01-1.015-2.324-1.824-3.049-3.002-3.868-6.287-5.756-7.256-.353-13.948 4.27-5.293 9.549-9.815 14.63-14.401 2.964-2.675 3.43-3.875 1.053-7.14-4.946-6.799-10.265-13.357-14.792-20.419-6.91-10.773-11.697-22.4-12.416-35.457C1.683 91.706.145 86.826.007 81.9c-.222-7.908 4.974-10.48 12.3-7.336 7.623 3.274 11.938 10.008 17.672 15.248 2.568 2.346 4.59 5.293 7.67 7.686-.422-1.631-1.057-3.237-1.229-4.893-.803-7.796-1.732-15.591-2.104-23.412-.237-4.98-2.404-10.418 2.189-14.83.444-.427.015-1.82-.097-2.758-1.038-8.633 2.558-15.876 9.987-20.207 5.806-3.387 15.04-2.53 20.67 2.297C75.933 41.304 82.07 50.78 87.62 60.789c.876 1.58 1.598 3.246 3.762 4.765.528-4.54 1.038-9.08 1.588-13.617 1.179-9.686 2.855-19.25 7.739-27.893 1.044-1.846 2.332-3.634 3.824-5.13 5.431-5.45 11.418-5.453 16.562.321 5.537 6.221 9.499 13.483 12.26 21.338 1.941 5.521 3.652 11.12 5.596 17.088 2.868-2.675 2.211-6.27 3.165-9.274.925-2.909 2.298-5.764 2.667-8.742.659-5.35 2.676-9.999 5.65-14.376.575-.85.788-1.956 1.113-2.962 2.72-8.374 7.519-15.317 14.952-20.06 6.472-4.13 12.353-2.387 17.178 3.756 5.706 7.265 7.144 15.873 8.089 24.521.756 6.93.381 13.98.562 20.975.035 1.335.335 2.66 1.751 4.406 3.021-5.143 5.982-10.32 9.071-15.423 5.331-8.801 11.018-17.36 19.426-23.602 2.814-2.09 5.631-4.269 9.749-3.51 5.744 1.063 8.311 3.316 9.287 9.08 2.295 13.564.359 26.697-4.071 40.213 1.228-.28 2.56-.178 3.211-.793 6.003-5.671 11.684-11.702 17.888-17.141 3.824-3.353 7.869-6.774 13.892-5.628 6.14 1.172 8.976 4.487 8.395 10.69-1.16 12.35-6.085 23.424-11.713 34.223-5.787 11.098-11.775 22.09-17.975 33.688zm-104.069-2.571-.932-1.178c-6.172 1.493-12.397 2.799-18.485 4.577-2.32.678-5.015 1.941-6.35 3.794-5.872 8.158-10.109 17.344-11.55 27.211-1.354 9.283-1.545 18.888 1.482 28.068 2.817 8.552 5.747 17.082 12.585 23.55 5.872 5.555 12.513 9.608 20.783 9.592 14.202-.028 25.523-6.418 32.596-18.366 10.55-17.819 14.705-37.238 8.949-57.654-2.514-8.911-6.323-17.523-16.578-20.703-8.136-2.522-12.86-.116-15.734 8.367 8.027.656 11.757 4.525 12.076 12.526.25 6.243-.644 12.174-3.612 17.854-4.471 8.565-13.226 9.608-18.419 1.569-3.349-5.184-5.031-11.049-4.709-17.532.403-8.087 2.886-15.26 7.895-21.672zm-37.28 9.436c-27.971 7.274-82.542 40.819-90.296 57.026 30.254 31.174 82.861 36.523 103.81 31.377-22.365-15.804-32.527-55.336-13.514-88.406zm74.26-13.27c.562 1.006.891 1.878 1.454 2.553 5.915 7.121 9.408 15.385 11.031 24.381.712 3.955.584 8.083.65 12.135.172 10.993-1.282 21.632-6.282 31.661-2.704 5.425-4.762 11.171-7.557 17.829 3.611-1.203 6.566-1.912 9.286-3.137 17.188-7.721 32.793-18.035 47.333-29.896 9.317-7.602 16.465-17.016 20.808-29.449-4.359-3.508-8.549-7.355-13.198-10.526-9.774-6.668-20.921-10.202-32.365-12.583-10.105-2.099-20.22-4.949-31.163-2.974zm-86.175 6.265c-2.217-8.127-3.774-15.607-6.316-22.74-3.724-10.455-8.186-20.645-12.26-30.974-3.549-8.996-9.606-16.345-15.875-23.425-5.706-6.446-15.696-4.668-19.526 3.096-1.022 2.078-1.566 4.412-2.154 6.678-2.136 8.21-.847 16.447-.6 24.755.466 15.526 4.73 29.899 10.868 43.875 2.533 5.768 5.59 11.308 8.489 17.113 6.488-3.28 12.379-6.33 18.332-9.255 6.138-3.015 12.332-5.914 19.042-9.12zm82.398-17.288c1.16-11.574 2.404-22.6 3.336-33.655 1.144-13.542.647-27.105-1.179-40.531-.754-5.543-2.92-10.983-5.065-16.214-1.454-3.55-4.268-4.077-7.611-2.159-1.613.925-3.161 2.116-4.418 3.48-5.803 6.322-9.524 13.918-12.347 21.876-4.29 12.098-8.87 34.21-8.414 51.883.163 6.29.672 12.567 1.041 19.135 11.825-1.3 22.86-2.516 34.653-3.812zm-42.63 5.38c-1.254-19.103-3.965-36.748-8.648-53.92-2.589-9.493-6.316-18.95-13.111-26.659-3.792-4.302-5.227-4.312-8.523.444-5.181 7.474-6.594 16.263-8.042 24.878-2.01 11.957-1.294 24.087.478 35.979 1.417 9.501 4.34 18.778 6.595 28.167l31.248-8.889zm76.642-1.943c7.01-13.158 11.244-27.456 15.305-41.8 2.914-10.293 5.437-20.694 5.034-31.502-.128-3.431-.957-6.834-1.601-11.174-2.929 1.725-5.053 2.747-6.925 4.115-8.221 6.012-13.436 14.539-18.292 23.135-5.937 10.52-11.071 21.5-14.783 33.045-2.166 6.74-4.587 13.488-4.039 20.875l25.298 3.303zM5.66 79.33c-.144 29.555 13.241 53.679 31.039 72.98 5.637-3.984 11.343-8.012 16.987-11.998-9.399-19.885-31.77-53.127-48.026-60.982m267.089-32.624c-14.973 1.634-40.347 32.761-48.567 59.586l19.536 7.327c3.952-6.959 7.798-13.183 11.109-19.679 5.281-10.36 10.509-20.772 15.149-31.426 2.114-4.856 3.614-10.22 2.773-15.808"/></svg>